<svg xmlns="http://www.w3.org/2000/svg" xmlns:xlink="http://www.w3.org/1999/xlink" width="20"
    zoomAndPan="magnify" viewBox="0 0 30 30.000001" height="40" preserveAspectRatio="xMidYMid meet"
    version="1.0">
    <defs>
        <clipPath id="f9534b66e2">
            <path
                d="M 0.484375 0 L 29.515625 0 L 29.515625 29.03125 L 0.484375 29.03125 Z M 0.484375 0 "
                clip-rule="nonzero" />
        </clipPath>
    </defs>
    <g clip-path="url(#f9534b66e2)">
        <path fill="#1a4789"
            d="M 29.515625 24.617188 C 29.515625 27.054688 27.542969 29.027344 25.105469 29.027344 L 4.898438 29.027344 C 2.460938 29.027344 0.484375 27.054688 0.484375 24.617188 L 0.484375 4.410156 C 0.484375 1.972656 2.460938 -0.00390625 4.898438 -0.00390625 L 25.105469 -0.00390625 C 27.542969 -0.00390625 29.515625 1.972656 29.515625 4.410156 Z M 29.515625 24.617188 "
            fill-opacity="1" fill-rule="nonzero" />
    </g>
    <path fill="#ffffff"
        d="M 19.722656 16.769531 L 20.191406 13.128906 L 16.585938 13.128906 L 16.585938 10.804688 C 16.585938 9.75 16.878906 9.03125 18.390625 9.03125 L 20.316406 9.03125 L 20.316406 5.777344 C 19.984375 5.730469 18.839844 5.632812 17.507812 5.632812 C 14.730469 5.632812 12.828125 7.328125 12.828125 10.445312 L 12.828125 13.128906 L 9.683594 13.128906 L 9.683594 16.769531 L 12.828125 16.769531 L 12.828125 26.109375 L 16.585938 26.109375 L 16.585938 16.769531 Z M 19.722656 16.769531 "
        fill-opacity="1" fill-rule="nonzero" />
</svg>